<?xml version="1.0" encoding="utf-8"?>
<!-- Generator: Adobe Illustrator 24.1.2, SVG Export Plug-In . SVG Version: 6.00 Build 0)  -->
<svg version="1.1" id="Ebene_1" xmlns="http://www.w3.org/2000/svg" xmlns:xlink="http://www.w3.org/1999/xlink" x="0px" y="0px"
	 viewBox="0 0 24 24" style="enable-background:new 0 0 24 24;" xml:space="preserve">
<style type="text/css">
	.st0{fill:#3C3C3B;}
</style>
<g>
   <path class="st0" d="M22.7,0H1.3C0.6,0,0,0.6,0,1.3v21.5C0,23.4,0.6,24,1.3,24h21.5c0.7,0,1.3-0.6,1.3-1.3V1.3
		C24,0.6,23.4,0,22.7,0z M1,8.7h22v6.8H1V8.7z M1.3,1h21.5C22.9,1,23,1.1,23,1.3v6.4H1V1.3C1,1.1,1.1,1,1.3,1z M22.7,23H1.3
		C1.1,23,1,22.9,1,22.7v-6.2h22v6.2C23,22.9,22.9,23,22.7,23z"></path>
    <path class="st0" d="M20.5,11.5H8.6H8H3.5C3.3,11.5,3,11.7,3,12s0.2,0.5,0.5,0.5H8h0.6h11.9c0.3,0,0.5-0.2,0.5-0.5
		S20.7,11.5,20.5,11.5z"></path>
</g>
</svg>
