<?xml version="1.0" encoding="UTF-8" standalone="no"?>
<svg
   version="1.1"
   id="Ebene_1"
   x="0px"
   y="0px"
   viewBox="0 0 24 24"
   style="enable-background:new 0 0 24 24;"
   xml:space="preserve"
   sodipodi:docname="icon.svg"
   inkscape:version="1.3 (0e150ed, 2023-07-21)"
   inkscape:export-filename="images/small.png"
   inkscape:export-xdpi="300"
   inkscape:export-ydpi="300"
   xmlns:inkscape="http://www.inkscape.org/namespaces/inkscape"
   xmlns:sodipodi="http://sodipodi.sourceforge.net/DTD/sodipodi-0.dtd"
   xmlns="http://www.w3.org/2000/svg"
   xmlns:svg="http://www.w3.org/2000/svg"><defs
   id="defs5" /><sodipodi:namedview
   id="namedview5"
   pagecolor="#ffffff"
   bordercolor="#000000"
   borderopacity="0.25"
   inkscape:showpageshadow="2"
   inkscape:pageopacity="0.0"
   inkscape:pagecheckerboard="0"
   inkscape:deskcolor="#d1d1d1"
   showgrid="true"
   inkscape:zoom="29.125"
   inkscape:cx="12"
   inkscape:cy="12"
   inkscape:window-width="1392"
   inkscape:window-height="1212"
   inkscape:window-x="648"
   inkscape:window-y="25"
   inkscape:window-maximized="0"
   inkscape:current-layer="Ebene_1"
   inkscape:export-bgcolor="#ffffffff"><inkscape:grid
     id="grid5"
     units="px"
     originx="0"
     originy="0"
     spacingx="1"
     spacingy="1"
     empcolor="#0099e5"
     empopacity="0.30196078"
     color="#0099e5"
     opacity="0.14901961"
     empspacing="5"
     dotted="false"
     gridanglex="30"
     gridanglez="30"
     visible="true" /></sodipodi:namedview>&#10;<g
   id="g5"
   transform="matrix(0.74783181,0,0,0.75250359,3.0214593,2.9871245)">&#10;  <g
   fill="#231f20"
   id="g4">&#10;    <path
   d="M 22.7,0 H 1.3 C 0.6,0 0,0.6 0,1.3 V 22.8 C 0,23.4 0.6,24 1.3,24 h 21.5 c 0.7,0 1.3,-0.6 1.3,-1.3 V 1.3 C 24,0.6 23.4,0 22.7,0 Z M 1,8.7 h 22 v 6.8 H 1 Z M 1.3,1 H 22.8 C 22.9,1 23,1.1 23,1.3 V 7.7 H 1 V 1.3 C 1,1.1 1.1,1 1.3,1 Z M 22.7,23 H 1.3 C 1.1,23 1,22.9 1,22.7 v -6.2 h 22 v 6.2 c 0,0.2 -0.1,0.3 -0.3,0.3 z"
   id="path1" />&#10;    <path
   d="m 12,6.9 c 0.3,0 0.5,-0.2 0.5,-0.5 V 1.9 c 0,-0.3 -0.2,-0.5 -0.5,-0.5 -0.3,0 -0.5,0.2 -0.5,0.5 v 4.6 c 0,0.2 0.2,0.4 0.5,0.4 z"
   id="path2" />&#10;    <path
   d="m 12,17.1 c -0.3,0 -0.5,0.2 -0.5,0.5 v 4.6 c 0,0.3 0.2,0.5 0.5,0.5 0.3,0 0.5,-0.2 0.5,-0.5 v -4.5 c 0,-0.4 -0.2,-0.6 -0.5,-0.6 z"
   id="path3" />&#10;    <path
   d="M 20.5,11.5 H 8.6 8 3.5 C 3.3,11.5 3,11.7 3,12 c 0,0.3 0.2,0.5 0.5,0.5 H 8 8.6 20.5 c 0.3,0 0.5,-0.2 0.5,-0.5 0,-0.3 -0.3,-0.5 -0.5,-0.5 z"
   id="path4" />&#10;  </g>&#10;</g>&#10;</svg>
