<?xml version="1.0" encoding="UTF-8" standalone="no"?>
<svg
   height="48"
   viewBox="0 -960 960 960"
   width="48"
   version="1.1"
   id="svg1"
   sodipodi:docname="icon.svg"
   inkscape:export-filename="images/small.png"
   inkscape:export-xdpi="150"
   inkscape:export-ydpi="150"
   inkscape:version="1.3 (0e150ed, 2023-07-21)"
   xmlns:inkscape="http://www.inkscape.org/namespaces/inkscape"
   xmlns:sodipodi="http://sodipodi.sourceforge.net/DTD/sodipodi-0.dtd"
   xmlns="http://www.w3.org/2000/svg"
   xmlns:svg="http://www.w3.org/2000/svg">
  <defs
     id="defs1" />
  <sodipodi:namedview
     id="namedview1"
     pagecolor="#ffffff"
     bordercolor="#000000"
     borderopacity="0.25"
     inkscape:showpageshadow="2"
     inkscape:pageopacity="0.0"
     inkscape:pagecheckerboard="0"
     inkscape:deskcolor="#d1d1d1"
     inkscape:export-bgcolor="#ffffffff"
     inkscape:zoom="14.5625"
     inkscape:cx="24"
     inkscape:cy="24"
     inkscape:window-width="1392"
     inkscape:window-height="1212"
     inkscape:window-x="663"
     inkscape:window-y="25"
     inkscape:window-maximized="0"
     inkscape:current-layer="svg1" />
  <path
     d="M160-160v-30.769h80v-553.847q0-23.057 16.163-39.221Q272.327-800 295.384-800h369.232q23.057 0 39.221 16.163Q720-767.673 720-744.616v553.847h80V-160H160Zm529.231-30.769v-553.847q0-9.23-7.692-16.923-7.693-7.692-16.923-7.692H295.384q-9.23 0-16.923 7.692-7.692 7.693-7.692 16.923v553.847h418.462ZM572.385-453.615q12.142 0 19.994-7.852t7.852-19.995q0-12.142-7.852-19.994t-19.994-7.852q-12.143 0-19.995 7.852t-7.852 19.994q0 12.143 7.852 19.995t19.995 7.852ZM270.769-769.231v578.462-578.462Z"
     id="path1" />
</svg>
